<svg width="949" height="448" viewBox="0 0 949 448" fill="none" xmlns="http://www.w3.org/2000/svg">
<rect width="949" height="448" fill="white"/>
<path d="M63.416 52.64H72.888V80.608H73.272L77.432 74.4L84.152 66.4H94.648L83.448 79.264L95.928 100H84.664L77.112 85.792L72.888 90.528V100H63.416V52.64ZM119.569 94.368H119.249C118.95 95.2213 118.545 96.032 118.033 96.8C117.563 97.568 116.945 98.2507 116.177 98.848C115.409 99.4453 114.491 99.9147 113.425 100.256C112.401 100.597 111.206 100.768 109.841 100.768C106.385 100.768 103.761 99.6373 101.969 97.376C100.219 95.072 99.3445 91.7867 99.3445 87.52V66.4H108.817V86.688C108.817 88.736 109.179 90.3147 109.905 91.424C110.63 92.5333 111.867 93.088 113.617 93.088C114.342 93.088 115.067 92.9813 115.793 92.768C116.518 92.5547 117.158 92.256 117.713 91.872C118.267 91.4453 118.715 90.9333 119.057 90.336C119.398 89.7387 119.569 89.0347 119.569 88.224V66.4H129.041V100H119.569V94.368ZM142.59 62.816C140.67 62.816 139.262 62.3893 138.366 61.536C137.512 60.64 137.086 59.5093 137.086 58.144V56.736C137.086 55.3707 137.512 54.2613 138.366 53.408C139.262 52.512 140.67 52.064 142.59 52.064C144.51 52.064 145.896 52.512 146.75 53.408C147.646 54.2613 148.094 55.3707 148.094 56.736V58.144C148.094 59.5093 147.646 60.64 146.75 61.536C145.896 62.3893 144.51 62.816 142.59 62.816ZM137.854 66.4H147.326V100H137.854V66.4ZM153.67 112.16V104.288H185.414V112.16H153.67Z" fill="black"/>
</svg>
