<svg viewBox="0 0 160 160" version="1.1" xmlns="http://www.w3.org/2000/svg" xmlns:xlink="http://www.w3.org/1999/xlink" preserveAspectRatio="xMidYMid meet">
    <g id="IBM-Cloud-Functions-Logo-Primary" xtransform="translate(43.263475, 43.243151)">
                        <g>
                            <path d="M124.036182,19.8726779 C121.565497,20.4182649 118.466313,22.4274921 116.803094,26.5683671 C114.889656,31.3127109 113.923125,38.4513046 113.403063,45.8008671 L117.470344,46.6103984 C119.805719,47.0617734 131.453156,50.0545859 131.516938,64.9008984 C131.575813,79.7668359 119.957813,82.8577734 117.735281,83.3042421 L112.603344,84.3738046 C111.543594,114.297023 102.447406,136.895211 85.506125,151.623773 C84.8094375,152.227242 84.1029375,152.776742 83.40625,153.336055 C101.171781,151.986836 118.554625,144.656898 132.144938,131.071492 C162.357625,100.863711 162.357625,51.8797109 132.144938,21.6670234 C131.698469,21.2205546 128.591387,18.8667785 124.036182,19.8726779 Z" id="Fill-1-Copy-3" fill="#56D8FF"></path>
                            <path d="M42.0980781,84.9909687 L37.2605156,84.0048125 C34.9251406,83.5485312 23.2875156,80.50175 23.2875156,65.6505312 C23.2875156,50.7895 34.9300469,47.7525312 37.1574844,47.3109688 L45.0222031,45.706625 C49.0158906,27.0383438 57.1602656,12.265625 69.3081406,1.707375 C69.9999219,1.1088125 70.7015156,0.5593125 71.4031094,0 C53.6375781,1.354125 36.2449219,8.6840625 22.6595156,22.2645625 C-6.84427623,51.7731455 -7.5365387,99.1731361 20.5827282,129.512172 C24.4796756,133.203131 36.2806746,131.356825 39.0316719,123.725812 C41.5191406,114.776813 42.0048594,100.072781 42.0980781,84.9909687 Z" id="Fill-4-Copy-3" fill="#56D8FF"></path>
                            <path d="M32.0250493,154.321188 C32.3292368,154.37025 34.7332993,154.718594 38.457143,154.718594 C46.9596743,154.718594 62.3456743,152.893469 75.4551743,141.506063 C90.5320805,128.396563 97.9699555,106.730563 97.5774555,77.1409688 L97.5774555,75.4679375 C97.5774555,74.7565313 97.5823618,74.084375 97.5823618,73.3827813 L114.327393,69.884625 C116.314424,69.4872188 116.407643,67.9123125 116.397831,65.9498125 C116.392924,63.9922188 116.275174,62.4320313 114.288143,62.0493438 L97.7540805,58.7670625 C98.5047368,27.4504687 102.415018,8.90975 121.490518,8.654625 C123.644362,8.6251875 123.919112,6.94234375 124.076112,4.79340625 C124.223299,2.6395625 124.198768,0.73103125 122.064549,0.4023125 C121.770174,0.35325 119.366112,0 115.642268,0 C107.144643,0 91.7488305,1.825125 78.6442368,13.207625 C67.0409555,23.2997812 60.0102993,38.523875 57.5424555,58.502125 L39.7867368,62.1229375 C37.7997055,62.5154375 37.691768,64.075625 37.691768,66.0430313 C37.691768,68.000625 37.7997055,69.5657188 39.7867368,69.9582188 L56.610268,73.3827813 C56.590643,74.8006875 56.5072368,76.145 56.5219555,77.59725 L56.5219555,79.2114063 C56.492518,120.61525 54.8685493,145.769594 32.6039868,146.068875 C30.4452368,146.098313 29.6111743,147.781156 29.4590805,149.925188 C29.311893,152.083938 29.8908305,153.992469 32.0250493,154.321188" id="Fill-7-Copy-2" fill="#266688"></path>
                        </g>
                    </g>
    </svg>
