<?xml version="1.0" encoding="UTF-8" standalone="no"?>
<svg
   xmlns:dc="http://purl.org/dc/elements/1.1/"
   xmlns:cc="http://creativecommons.org/ns#"
   xmlns:rdf="http://www.w3.org/1999/02/22-rdf-syntax-ns#"
   xmlns:svg="http://www.w3.org/2000/svg"
   xmlns="http://www.w3.org/2000/svg"
   xmlns:sodipodi="http://sodipodi.sourceforge.net/DTD/sodipodi-0.dtd"
   xmlns:inkscape="http://www.inkscape.org/namespaces/inkscape"
   version="1.0"
   width="1280.000000pt"
   height="1222.000000pt"
   viewBox="0 0 1280.000000 1222.000000"
   preserveAspectRatio="xMidYMid meet"
   id="svg6"
   sodipodi:docname="sunflower.svg"
   inkscape:version="0.92.3 (2405546, 2018-03-11)">
  <metadata
     id="metadata12">
    <rdf:RDF>
      <cc:Work
         rdf:about="">
        <dc:format>image/svg+xml</dc:format>
        <dc:type
           rdf:resource="http://purl.org/dc/dcmitype/StillImage" />
      </cc:Work>
    </rdf:RDF>
  </metadata>
  <defs
     id="defs10" />
  <sodipodi:namedview
     pagecolor="#ffffff"
     bordercolor="#666666"
     borderopacity="1"
     objecttolerance="10"
     gridtolerance="10"
     guidetolerance="10"
     inkscape:pageopacity="0"
     inkscape:pageshadow="2"
     inkscape:window-width="1188"
     inkscape:window-height="757"
     id="namedview8"
     showgrid="false"
     inkscape:zoom="0.31911058"
     inkscape:cx="850.62258"
     inkscape:cy="814.66667"
     inkscape:window-x="208"
     inkscape:window-y="27"
     inkscape:window-maximized="0"
     inkscape:current-layer="svg6" />
  <g
     transform="translate(0.000000,1222.000000) scale(0.100000,-0.100000)"
     fill="#e91e63"
     stroke="none"
     id="g4"
     style="stroke:#0f212e;stroke-opacity:0.46666667;stroke-width:359.9999998;stroke-miterlimit:4;stroke-dasharray:none;fill:#efc100;fill-opacity:1;stroke-linejoin:round">
    <path
       d="M6820 12205 c-196 -45 -341 -184 -406 -390 -13 -44 -42 -165 -63 -269 l-38 -189 -40 75 c-66 120 -157 235 -287 363 -140 139 -260 227 -401 295 -126 62 -207 83 -315 83 -207 1 -339 -125 -390 -373 -27 -128 -42 -395 -33 -547 5 -68 6 -123 3 -123 -3 0 -33 9 -67 20 -190 59 -366 21 -462 -101 -49 -61 -79 -141 -93 -244 -9 -69 -8 -98 11 -206 11 -70 21 -133 21 -140 0 -7 -56 62 -124 153 -136 181 -194 235 -315 296 -73 36 -78 37 -185 37 -107 0 -114 -1 -176 -34 -77 -40 -174 -134 -219 -213 -18 -32 -33 -58 -35 -58 -1 0 -41 14 -90 31 -223 77 -470 107 -634 76 -294 -56 -406 -259 -322 -585 28 -112 90 -271 156 -398 50 -97 52 -106 32 -101 -176 45 -452 56 -542 23 -140 -51 -194 -143 -166 -282 16 -78 52 -155 139 -298 39 -65 65 -116 58 -113 -46 18 -227 29 -385 24 -145 -4 -195 -10 -273 -30 -119 -31 -221 -82 -276 -138 -64 -64 -78 -100 -77 -194 1 -120 39 -191 223 -408 l80 -95 -35 -65 c-105 -198 -95 -400 28 -589 23 -35 89 -110 148 -168 l107 -106 -71 9 c-118 14 -462 22 -599 15 -235 -14 -393 -69 -449 -157 -25 -40 -28 -54 -28 -130 1 -149 59 -273 189 -401 124 -121 345 -254 586 -351 28 -11 22 -13 -89 -30 -317 -49 -528 -144 -702 -314 -337 -330 -268 -610 182 -743 86 -25 155 -40 339 -71 l40 -7 -120 -57 c-229 -110 -397 -244 -461 -367 -25 -48 -29 -66 -29 -140 0 -76 3 -93 32 -151 72 -146 203 -247 404 -312 142 -47 240 -60 487 -66 l233 -6 -76 -90 c-159 -188 -287 -412 -361 -630 -61 -178 -52 -299 28 -371 111 -102 341 -110 693 -25 291 71 541 169 932 366 l302 152 -113 -121 c-346 -370 -550 -657 -727 -1021 -123 -252 -218 -529 -238 -695 -35 -274 126 -429 444 -430 232 0 511 78 775 217 129 68 215 128 300 209 l65 63 65 -32 c56 -28 74 -32 145 -32 69 0 89 5 147 32 38 18 68 31 68 29 0 -1 -25 -58 -56 -127 -112 -249 -135 -335 -135 -509 1 -409 303 -770 646 -771 164 0 310 77 423 223 51 66 190 308 280 485 37 73 70 133 75 133 4 0 7 -17 7 -37 0 -117 72 -471 107 -532 71 -122 232 -237 350 -250 182 -20 334 51 533 249 174 172 314 390 380 590 39 117 230 998 230 1061 0 10 5 19 10 19 6 0 10 -8 10 -19 0 -36 109 -448 155 -584 133 -396 312 -752 517 -1027 174 -232 321 -381 427 -433 58 -27 76 -31 146 -31 99 0 151 23 237 103 151 140 262 389 325 731 13 70 18 149 18 297 l0 201 45 -42 c165 -153 320 -226 448 -213 162 17 305 167 358 377 19 73 24 264 11 394 l-8 80 123 -120 c97 -94 139 -127 198 -156 134 -67 247 -83 365 -53 91 24 153 63 240 150 125 125 190 273 202 465 12 182 -56 372 -183 508 -36 40 -63 72 -60 72 3 0 27 -8 53 -19 199 -77 609 -128 832 -102 337 40 512 160 528 364 16 200 -162 497 -484 807 l-135 130 68 -31 c303 -137 937 -118 1303 40 318 137 401 335 237 566 -102 143 -427 393 -726 560 -58 32 -106 60 -108 61 -2 1 7 19 20 40 20 34 23 51 22 139 -2 121 -33 229 -93 320 l-40 60 102 16 c499 80 988 425 1023 723 16 133 -70 254 -236 334 -113 54 -324 123 -512 166 -276 63 -492 87 -815 89 -123 1 -223 2 -223 3 0 1 39 24 87 50 129 72 395 251 511 343 435 346 525 593 264 725 -109 55 -312 103 -484 113 l-106 6 82 91 c155 172 274 346 350 508 59 125 79 205 74 295 -4 90 -38 144 -113 182 -106 53 -342 36 -683 -50 -86 -21 -157 -39 -158 -39 -1 0 10 26 26 58 54 112 135 346 160 462 7 31 11 94 8 140 -6 147 -69 242 -200 305 -96 46 -182 59 -363 52 -156 -6 -264 -24 -410 -71 -43 -14 -81 -23 -84 -21 -2 3 1 24 8 46 51 170 76 508 52 691 -36 269 -130 451 -263 508 -68 29 -167 24 -248 -12 -69 -31 -189 -122 -304 -229 l-89 -83 5 114 c10 219 -21 560 -62 692 -35 114 -105 199 -199 241 -71 32 -201 29 -306 -7 -295 -101 -653 -417 -841 -742 -36 -63 -44 -72 -38 -44 11 55 8 211 -6 271 -56 242 -270 455 -530 529 -98 28 -244 34 -330 15z"
       id="path2"
       style="stroke:#0f212e;stroke-opacity:0.46666667;stroke-width:359.9999998;stroke-miterlimit:4;stroke-dasharray:none;fill:#efc100;fill-opacity:1;stroke-linejoin:round" />
  </g>
</svg>
